<?xml version="1.0" ?><svg enable-background="new 0 0 32 32" height="32px" id="svg2" version="1.1" viewBox="0 0 32 32" width="32px" xml:space="preserve" xmlns="http://www.w3.org/2000/svg" xmlns:cc="http://creativecommons.org/ns#" xmlns:dc="http://purl.org/dc/elements/1.1/" xmlns:inkscape="http://www.inkscape.org/namespaces/inkscape" xmlns:rdf="http://www.w3.org/1999/02/22-rdf-syntax-ns#" xmlns:sodipodi="http://sodipodi.sourceforge.net/DTD/sodipodi-0.dtd" xmlns:svg="http://www.w3.org/2000/svg"><g id="background"><rect fill="none" height="32" width="32"/></g><g id="user_x5F_close_x5F_security"><path d="M32,23c-0.002-4.973-4.029-9-9-9c-0.025,0-0.049,0.003-0.074,0.004C23.608,12.826,24,11.459,24,10c0-4.418-3.582-8-8-8   c-4.418,0-8,3.582-8,8c0,4.26,3.332,7.732,7.531,7.977c-0.419,0.622-0.753,1.304-1.008,2.023H4c-4,0-4,4-4,4v8h32v-8   C32,24,32,23.207,32,23z M29.883,23c-0.009,3.799-3.084,6.874-6.883,6.883c-3.801-0.009-6.876-3.084-6.884-6.883   c0.008-3.801,3.083-6.876,6.884-6.884C26.799,16.124,29.874,19.199,29.883,23z"/><path d="M26.144,22c0.008-0.131,0.014-0.267,0.014-0.409c-0.006-0.678-0.088-1.492-0.556-2.259   c-0.457-0.779-1.438-1.36-2.602-1.333c-1.165-0.027-2.148,0.554-2.605,1.333c-0.47,0.767-0.552,1.581-0.556,2.259   c0,0.143,0.006,0.278,0.014,0.409H19v5h8v-5H26.144z M21.837,21.591c-0.004-0.478,0.093-0.958,0.254-1.198   c0.173-0.227,0.27-0.366,0.909-0.394c0.637,0.027,0.73,0.165,0.904,0.394c0.162,0.24,0.259,0.723,0.253,1.198   c0,0.145-0.008,0.28-0.019,0.409h-2.282C21.846,21.869,21.837,21.732,21.837,21.591z"/></g></svg>